<svg width="138" height="30" viewBox="0 0 138 30" fill="none" xmlns="http://www.w3.org/2000/svg">
<path d="M5.29248 18.5132H9.57342H15.0285C17.3225 18.5132 19.2733 19.9763 20.0139 22.0355H24.6019C27.51 22.0355 29.8763 19.6692 29.8763 16.7611C29.8763 13.8529 27.51 11.4867 24.6019 11.4867H20.3029H14.8478C12.5538 11.4867 10.603 10.0235 9.86243 7.96436H5.27441C2.36626 7.96436 0 10.3306 0 13.2388C0.0180631 16.165 2.38433 18.5132 5.29248 18.5132Z" fill="url(#paint0_linear_87_1961)"/>
<path d="M2.78125 25.5576C2.78125 27.5084 4.35274 29.0799 6.30355 29.0799H15.028C17.9362 29.0799 20.3024 26.7136 20.3024 23.8055C20.3024 23.1914 20.194 22.5953 19.9953 22.0534H6.28549C4.35274 22.0353 2.78125 23.6068 2.78125 25.5576Z" fill="url(#paint1_linear_87_1961)"/>
<path d="M27.0954 4.44222C27.0954 2.49141 25.5239 0.919922 23.5731 0.919922H14.8486C11.9405 0.919922 9.57422 3.28618 9.57422 6.19433C9.57422 6.80847 9.6826 7.40456 9.88129 7.94645H23.5912C25.5239 7.96451 27.0954 6.39303 27.0954 4.44222Z" fill="url(#paint2_linear_87_1961)"/>
<path d="M40.5995 9.42219C41.286 9.42219 41.8745 9.50556 42.3649 9.67229C42.8553 9.82922 43.2133 10.0205 43.4388 10.2461C43.4781 10.2853 43.5026 10.3245 43.5124 10.3638C43.5222 10.403 43.5271 10.452 43.5271 10.5109C43.5271 10.6972 43.5271 10.9081 43.5271 11.1435C43.5271 11.3789 43.5271 11.6143 43.5271 11.8496C43.5271 12.085 43.5271 12.3155 43.5271 12.5411C43.2525 12.5411 42.9681 12.5411 42.6738 12.5411C42.3796 12.5411 42.0903 12.5411 41.8058 12.5411C41.7568 12.5411 41.7176 12.5264 41.6881 12.497C41.6587 12.4675 41.644 12.4283 41.644 12.3793C41.644 12.2812 41.644 12.1831 41.644 12.085C41.644 11.987 41.644 11.884 41.644 11.7761C41.644 11.6584 41.644 11.5358 41.644 11.4083C41.644 11.2808 41.644 11.1386 41.644 10.9816L42.0559 11.5113C41.8205 11.4034 41.59 11.3298 41.3645 11.2906C41.1487 11.2416 40.8937 11.217 40.5995 11.217C40.315 11.217 40.0649 11.2367 39.8491 11.2759C39.6432 11.3151 39.4666 11.3838 39.3195 11.4818C39.1724 11.5701 39.0596 11.6878 38.9811 11.8349C38.9027 11.9722 38.8635 12.139 38.8635 12.3351V12.6441C38.8635 12.8304 38.8929 12.9923 38.9517 13.1296C39.0204 13.2669 39.1381 13.3846 39.3048 13.4827C39.4814 13.5807 39.7413 13.6837 40.0845 13.7916L41.4969 14.2183C41.948 14.3556 42.3256 14.5076 42.6297 14.6743C42.9435 14.8312 43.1887 15.0127 43.3653 15.2187C43.5418 15.4246 43.6693 15.66 43.7478 15.9248C43.8262 16.1896 43.8655 16.4937 43.8655 16.837V17.5137C43.8655 18.0826 43.7135 18.5779 43.4094 18.9996C43.1054 19.4115 42.664 19.7303 42.0853 19.9559C41.5165 20.1716 40.8299 20.2795 40.0257 20.2795C39.5549 20.2795 39.1087 20.2501 38.6869 20.1913C38.275 20.1324 37.9121 20.0441 37.5982 19.9264C37.2942 19.7989 37.0539 19.6567 36.8774 19.4998C36.8479 19.4704 36.8234 19.441 36.8038 19.4115C36.794 19.3723 36.7891 19.3085 36.7891 19.2203C36.7891 19.0437 36.7891 18.8721 36.7891 18.7054C36.7891 18.5386 36.7891 18.3621 36.7891 18.1757C36.7891 17.9894 36.7891 17.7981 36.7891 17.602H37.0686C37.51 17.8962 37.9709 18.1169 38.4515 18.264C38.9321 18.4013 39.501 18.47 40.1581 18.47C40.7662 18.47 41.2075 18.3719 41.4822 18.1757C41.7666 17.9796 41.9088 17.7442 41.9088 17.4696V16.9694C41.9088 16.8026 41.8794 16.6653 41.8205 16.5574C41.7715 16.4397 41.6636 16.3318 41.4969 16.2338C41.3301 16.1259 41.0653 16.0229 40.7024 15.9248L39.3048 15.4982C38.8242 15.3511 38.427 15.1843 38.1132 14.998C37.7993 14.8018 37.5541 14.5959 37.3776 14.3801C37.2108 14.1643 37.0882 13.9338 37.0098 13.6886C36.9411 13.4336 36.9068 13.1688 36.9068 12.8942V12.188C36.9068 11.7859 36.9901 11.4181 37.1569 11.0846C37.3334 10.7414 37.5835 10.4471 37.9072 10.2019C38.2308 9.94692 38.6183 9.75566 39.0694 9.62816C39.5304 9.49085 40.0404 9.42219 40.5995 9.42219ZM49.2884 11.9085C49.6513 11.9085 49.97 11.933 50.2447 11.9821C50.5193 12.0213 50.74 12.0752 50.9067 12.1439C51.0832 12.2027 51.2009 12.2616 51.2598 12.3204C51.2794 12.3302 51.2892 12.3498 51.2892 12.3793C51.299 12.3989 51.3039 12.4234 51.3039 12.4528C51.3039 12.7275 51.3039 13.007 51.3039 13.2914C51.3039 13.5758 51.3039 13.8603 51.3039 14.1447H51.0244C50.7596 14.027 50.485 13.9387 50.2005 13.8799C49.9161 13.821 49.6072 13.7916 49.2737 13.7916C48.95 13.7916 48.6607 13.8554 48.4057 13.9829C48.1507 14.1006 47.9545 14.2918 47.8172 14.5566C47.6799 14.8214 47.6112 15.1647 47.6112 15.5865V16.5133C47.6112 16.8271 47.6505 17.1018 47.7289 17.3372C47.8074 17.5627 47.93 17.7491 48.0967 17.8962C48.234 18.0335 48.4008 18.1365 48.5969 18.2052C48.7931 18.264 49.0187 18.2934 49.2737 18.2934C49.4993 18.2934 49.7101 18.2836 49.9063 18.264C50.1025 18.2346 50.2937 18.1953 50.4801 18.1463C50.6664 18.0973 50.8479 18.0335 51.0244 17.9551H51.3039C51.3039 18.2395 51.3039 18.5239 51.3039 18.8083C51.3039 19.0928 51.3039 19.3772 51.3039 19.6616C51.3039 19.6812 51.299 19.7009 51.2892 19.7205C51.2892 19.7401 51.2794 19.7597 51.2598 19.7793C51.2107 19.8284 51.098 19.8872 50.9214 19.9559C50.7547 20.0147 50.5291 20.0638 50.2447 20.103C49.97 20.152 49.6513 20.1765 49.2884 20.1765C48.6999 20.1765 48.1752 20.0981 47.7142 19.9412C47.2533 19.7842 46.8609 19.5537 46.5373 19.2497C46.2136 18.9358 45.9684 18.5582 45.8017 18.1169C45.635 17.6755 45.5516 17.1753 45.5516 16.6163V15.557C45.5516 14.8312 45.7085 14.1986 46.0224 13.6592C46.3362 13.11 46.7727 12.6833 47.3317 12.3793C47.8908 12.0654 48.543 11.9085 49.2884 11.9085ZM55.0113 13.4974H55.5998C55.7175 13.1345 55.8548 12.8402 56.0117 12.6147C56.1686 12.3793 56.3599 12.2076 56.5855 12.0997C56.8209 11.9919 57.0857 11.9379 57.3799 11.9379C57.5368 11.9379 57.6643 11.9526 57.7624 11.9821C57.8703 12.0115 57.9439 12.0409 57.9831 12.0703C58.0223 12.0997 58.0468 12.1292 58.0566 12.1586C58.0665 12.1782 58.0714 12.2125 58.0714 12.2616C58.0714 12.4185 58.0714 12.5754 58.0714 12.7324C58.0714 12.8795 58.0714 13.0266 58.0714 13.1737C58.0714 13.3208 58.0714 13.4729 58.0714 13.6298C58.0714 13.7769 58.0714 13.9289 58.0714 14.0858H57.7918C57.6938 14.0564 57.5859 14.0319 57.4682 14.0123C57.3505 13.9927 57.2181 13.9829 57.071 13.9829C56.7669 13.9829 56.4972 14.0417 56.2618 14.1594C56.0362 14.2771 55.8254 14.4438 55.6292 14.6596C55.433 14.8656 55.2271 15.1108 55.0113 15.3952V13.4974ZM55.2908 20C55.075 20 54.8544 20 54.6288 20C54.413 20 54.1972 20 53.9815 20C53.7657 20 53.5499 20 53.3341 20C53.3047 20 53.2802 20 53.2606 20C53.241 19.9902 53.2214 19.9804 53.2017 19.9706C53.1919 19.951 53.1821 19.9313 53.1723 19.9117C53.1723 19.8921 53.1723 19.8676 53.1723 19.8382C53.1723 19.4753 53.1723 19.0928 53.1723 18.6906C53.1723 18.2787 53.1723 17.857 53.1723 17.4254C53.1723 16.9939 53.1723 16.5623 53.1723 16.1308C53.1723 15.6894 53.1723 15.253 53.1723 14.8214C53.1723 14.3801 53.1723 13.9485 53.1723 13.5268C53.1723 13.2522 53.1723 12.9923 53.1723 12.7471C53.1723 12.5019 53.1723 12.2812 53.1723 12.085C53.4175 12.085 53.648 12.085 53.8638 12.085C54.0894 12.085 54.3051 12.085 54.5111 12.085C54.7269 12.085 54.9328 12.085 55.129 12.085C55.1682 12.085 55.1976 12.0948 55.2173 12.1145C55.2369 12.1243 55.2516 12.139 55.2614 12.1586C55.281 12.1782 55.2908 12.2076 55.2908 12.2469C55.2908 12.698 55.2908 13.1737 55.2908 13.6739C55.2908 14.1741 55.2908 14.6841 55.2908 15.2039C55.2908 15.7238 55.2908 16.2583 55.2908 16.8075C55.2908 17.347 55.2908 17.8864 55.2908 18.4258C55.2908 18.9555 55.2908 19.4802 55.2908 20ZM62.8331 11.9085C63.5 11.9085 64.0787 12.0458 64.569 12.3204C65.0692 12.595 65.4567 12.9776 65.7313 13.4679C66.0059 13.9583 66.1432 14.5321 66.1432 15.1892V16.4103C66.1432 16.4397 66.1383 16.4692 66.1285 16.4986C66.1187 16.5182 66.0991 16.5329 66.0697 16.5427C66.05 16.5525 66.0255 16.5574 65.9961 16.5574H62.6124C62.4456 16.5574 62.274 16.5574 62.0975 16.5574C61.9307 16.5574 61.764 16.5574 61.5973 16.5574H60.9941L60.9499 15.3216H64.216C64.216 15.2824 64.216 15.2481 64.216 15.2187C64.216 15.1892 64.216 15.1549 64.216 15.1157C64.216 14.8312 64.1865 14.5909 64.1277 14.3948C64.0688 14.1888 63.9757 14.027 63.8482 13.9093C63.7403 13.7916 63.603 13.7082 63.4362 13.6592C63.2695 13.6102 63.0684 13.5856 62.8331 13.5856C62.3427 13.5856 61.9749 13.7082 61.7297 13.9534C61.4943 14.1888 61.3766 14.5762 61.3766 15.1157V16.9105C61.3766 17.0674 61.3913 17.2146 61.4207 17.3519C61.4501 17.4892 61.4894 17.6118 61.5384 17.7197C61.5874 17.8276 61.6561 17.9207 61.7444 17.9992C61.9013 18.1561 62.1073 18.2689 62.3623 18.3376C62.6271 18.4062 62.9311 18.4405 63.2744 18.4405C63.6275 18.4405 63.9364 18.4209 64.2013 18.3817C64.4759 18.3425 64.7358 18.2934 64.981 18.2346C65.2262 18.1757 65.4567 18.1022 65.6724 18.0139H65.952C65.952 18.2689 65.952 18.5239 65.952 18.7789C65.952 19.0241 65.952 19.2742 65.952 19.5292C65.952 19.5488 65.9471 19.5685 65.9372 19.5881C65.9274 19.6077 65.9127 19.6273 65.8931 19.6469C65.8146 19.7352 65.6381 19.8186 65.3635 19.897C65.0889 19.9755 64.7652 20.0392 64.3925 20.0883C64.0198 20.1471 63.6422 20.1765 63.2597 20.1765C62.6124 20.1765 62.0435 20.103 61.5531 19.9559C61.0627 19.7989 60.6606 19.5783 60.3468 19.2938C60.0329 19.0094 59.7926 18.6661 59.6259 18.264C59.4689 17.8521 59.3905 17.3911 59.3905 16.8811V15.2039C59.3905 14.7037 59.4689 14.2526 59.6259 13.8505C59.7926 13.4483 60.028 13.1051 60.332 12.8206C60.6361 12.5264 60.999 12.3008 61.4207 12.1439C61.8425 11.987 62.3132 11.9085 62.8331 11.9085ZM71.6544 11.9085C72.3213 11.9085 72.9 12.0458 73.3904 12.3204C73.8906 12.595 74.278 12.9776 74.5526 13.4679C74.8273 13.9583 74.9646 14.5321 74.9646 15.1892V16.4103C74.9646 16.4397 74.9597 16.4692 74.9499 16.4986C74.94 16.5182 74.9204 16.5329 74.891 16.5427C74.8714 16.5525 74.8469 16.5574 74.8174 16.5574H71.4337C71.267 16.5574 71.0954 16.5574 70.9188 16.5574C70.7521 16.5574 70.5853 16.5574 70.4186 16.5574H69.8154L69.7713 15.3216H73.0373C73.0373 15.2824 73.0373 15.2481 73.0373 15.2187C73.0373 15.1892 73.0373 15.1549 73.0373 15.1157C73.0373 14.8312 73.0079 14.5909 72.949 14.3948C72.8902 14.1888 72.797 14.027 72.6695 13.9093C72.5616 13.7916 72.4243 13.7082 72.2576 13.6592C72.0909 13.6102 71.8898 13.5856 71.6544 13.5856C71.164 13.5856 70.7962 13.7082 70.551 13.9534C70.3156 14.1888 70.1979 14.5762 70.1979 15.1157V16.9105C70.1979 17.0674 70.2126 17.2146 70.2421 17.3519C70.2715 17.4892 70.3107 17.6118 70.3598 17.7197C70.4088 17.8276 70.4775 17.9207 70.5657 17.9992C70.7227 18.1561 70.9286 18.2689 71.1836 18.3376C71.4484 18.4062 71.7525 18.4405 72.0958 18.4405C72.4488 18.4405 72.7578 18.4209 73.0226 18.3817C73.2972 18.3425 73.5571 18.2934 73.8023 18.2346C74.0475 18.1757 74.278 18.1022 74.4938 18.0139H74.7733C74.7733 18.2689 74.7733 18.5239 74.7733 18.7789C74.7733 19.0241 74.7733 19.2742 74.7733 19.5292C74.7733 19.5488 74.7684 19.5685 74.7586 19.5881C74.7488 19.6077 74.7341 19.6273 74.7145 19.6469C74.636 19.7352 74.4595 19.8186 74.1848 19.897C73.9102 19.9755 73.5866 20.0392 73.2139 20.0883C72.8412 20.1471 72.4636 20.1765 72.081 20.1765C71.4337 20.1765 70.8649 20.103 70.3745 19.9559C69.8841 19.7989 69.482 19.5783 69.1681 19.2938C68.8543 19.0094 68.614 18.6661 68.4472 18.264C68.2903 17.8521 68.2118 17.3911 68.2118 16.8811V15.2039C68.2118 14.7037 68.2903 14.2526 68.4472 13.8505C68.614 13.4483 68.8493 13.1051 69.1534 12.8206C69.4574 12.5264 69.8203 12.3008 70.2421 12.1439C70.6638 11.987 71.1346 11.9085 71.6544 11.9085ZM83.8742 20C83.5505 20 83.2465 20 82.9621 20C82.6874 20 82.3834 20 82.0499 20C82.0205 20 81.9911 19.9951 81.9617 19.9853C81.942 19.9657 81.9224 19.9461 81.9028 19.9264C81.893 19.9068 81.8881 19.8774 81.8881 19.8382C81.8881 19.2595 81.8881 18.6808 81.8881 18.1022C81.8881 17.5137 81.8881 16.9301 81.8881 16.3515C81.8881 15.7728 81.8881 15.1941 81.8881 14.6155C81.8881 14.3507 81.8292 14.1545 81.7116 14.027C81.5939 13.8995 81.4075 13.8357 81.1525 13.8357C80.9858 13.8357 80.7994 13.8652 80.5935 13.924C80.3973 13.9731 80.1962 14.0515 79.9903 14.1594C79.7941 14.2575 79.6029 14.385 79.4165 14.5419C79.2302 14.6988 79.0585 14.8852 78.9016 15.101V13.365H79.4165C79.6127 13.0707 79.8284 12.8157 80.0638 12.5999C80.309 12.3842 80.5738 12.2174 80.8583 12.0997C81.1525 11.9722 81.4664 11.9085 81.7998 11.9085C82.1137 11.9085 82.3981 11.9624 82.6531 12.0703C82.9179 12.1684 83.1386 12.3204 83.3151 12.5264C83.5015 12.7225 83.6388 12.9628 83.7271 13.2473C83.8252 13.5317 83.8742 13.8505 83.8742 14.2035C83.8742 14.6743 83.8742 15.15 83.8742 15.6306C83.8742 16.1112 83.8742 16.5918 83.8742 17.0723C83.8742 17.5529 83.8742 18.0384 83.8742 18.5288C83.8742 18.774 83.8742 19.0192 83.8742 19.2644C83.8742 19.5096 83.8742 19.7548 83.8742 20ZM79.137 20C78.9212 20 78.7152 20 78.5191 20C78.3327 20 78.1366 20 77.9306 20C77.7345 20 77.5285 20 77.3127 20C77.2833 20 77.2588 20 77.2392 20C77.2195 19.9902 77.1999 19.9804 77.1803 19.9706C77.1705 19.951 77.1607 19.9313 77.1509 19.9117C77.1509 19.8921 77.1509 19.8676 77.1509 19.8382C77.1509 19.3085 77.1509 18.7838 77.1509 18.264C77.1509 17.7344 77.1509 17.2097 77.1509 16.6898C77.1509 16.1602 77.1509 15.6355 77.1509 15.1157C77.1509 14.586 77.1509 14.0564 77.1509 13.5268C77.1509 13.2522 77.1509 12.9923 77.1509 12.7471C77.1509 12.5019 77.1509 12.2812 77.1509 12.085C77.3961 12.085 77.6168 12.085 77.8129 12.085C78.0189 12.085 78.215 12.085 78.4014 12.085C78.5975 12.085 78.7888 12.085 78.9751 12.085C79.0144 12.085 79.0438 12.0948 79.0634 12.1145C79.083 12.1243 79.0977 12.139 79.1076 12.1586C79.1272 12.1782 79.137 12.2076 79.137 12.2469C79.137 13.1002 79.137 13.9583 79.137 14.8214C79.137 15.6845 79.137 16.5476 79.137 17.4107C79.137 18.2738 79.137 19.1369 79.137 20ZM85.1591 9.70172H92.309C92.358 9.70172 92.3973 9.71643 92.4267 9.74585C92.4659 9.77528 92.4856 9.81451 92.4856 9.86355C92.4856 10.1676 92.4856 10.4422 92.4856 10.6874C92.4856 10.9228 92.4856 11.1925 92.4856 11.4966H85.3356C85.3062 11.4966 85.2768 11.4917 85.2473 11.4818C85.2277 11.4622 85.2081 11.4426 85.1885 11.423C85.1689 11.3936 85.1591 11.3642 85.1591 11.3347C85.1591 11.0307 85.1591 10.7561 85.1591 10.5109C85.1591 10.2657 85.1591 9.99595 85.1591 9.70172ZM89.8816 20C89.5579 20 89.2342 20 88.9106 20C88.5869 20 88.2584 20 87.9249 20C87.8758 20 87.8366 19.9853 87.8072 19.9559C87.7778 19.9264 87.7631 19.8872 87.7631 19.8382C87.7631 19.0437 87.7631 18.2738 87.7631 17.5284C87.7631 16.783 87.7631 16.0376 87.7631 15.2922C87.7631 14.537 87.7631 13.7818 87.7631 13.0266C87.7631 12.2616 87.7631 11.4917 87.7631 10.7168H90.0434L89.8816 11.1141C89.8816 11.3102 89.8816 11.5211 89.8816 11.7467C89.8816 11.9624 89.8816 12.1733 89.8816 12.3793C89.8816 12.5852 89.8816 12.7814 89.8816 12.9677C89.8816 13.5954 89.8816 14.2084 89.8816 14.8067C89.8816 15.3952 89.8816 15.9984 89.8816 16.6163C89.8816 17.2244 89.8816 17.8668 89.8816 18.5435C89.8816 18.8181 89.8816 19.0781 89.8816 19.3233C89.8816 19.5685 89.8816 19.794 89.8816 20ZM99.0707 15.2922C99.3257 15.7434 99.5611 16.1651 99.7769 16.5574C99.9926 16.9399 100.223 17.3617 100.468 17.8226C100.557 17.9698 100.635 18.0728 100.704 18.1316C100.782 18.1806 100.875 18.2052 100.983 18.2052C101.032 18.2052 101.067 18.2052 101.086 18.2052C101.116 18.2052 101.15 18.2052 101.189 18.2052H101.469C101.469 18.4994 101.469 18.774 101.469 19.029C101.469 19.2742 101.469 19.5439 101.469 19.8382C101.469 19.8872 101.454 19.9264 101.425 19.9559C101.395 19.9853 101.356 20 101.307 20C101.238 20 101.145 20 101.027 20C100.919 20 100.817 20 100.718 20C100.385 20 100.105 19.9755 99.8799 19.9264C99.6543 19.8676 99.4581 19.7695 99.2914 19.6322C99.1345 19.4851 98.9873 19.284 98.85 19.029C98.595 18.5288 98.34 18.0335 98.085 17.5431C97.8398 17.0429 97.5897 16.5476 97.3347 16.0572L99.0707 15.2922ZM93.6715 9.70172C94.3482 9.70172 95.0249 9.70172 95.7017 9.70172C96.3784 9.70172 97.0552 9.70172 97.7319 9.70172C98.3302 9.70172 98.8402 9.77037 99.262 9.90768C99.6837 10.045 100.027 10.251 100.292 10.5256C100.557 10.7904 100.748 11.1091 100.866 11.4818C100.993 11.8545 101.057 12.2714 101.057 12.7324V13.5562C101.057 14.0074 100.988 14.4144 100.851 14.7773C100.714 15.1304 100.512 15.4344 100.248 15.6894C99.9926 15.9346 99.6788 16.121 99.3061 16.2485C98.9334 16.376 98.5117 16.4397 98.0409 16.4397C97.7466 16.4397 97.4475 16.4397 97.1435 16.4397C96.8492 16.4397 96.5501 16.4397 96.246 16.4397L96.0842 16.528V14.7037C96.3686 14.7037 96.6531 14.7037 96.9375 14.7037C97.2317 14.7037 97.5211 14.7037 97.8055 14.7037C98.0801 14.7037 98.3057 14.6645 98.4822 14.586C98.6588 14.5076 98.7863 14.385 98.8647 14.2183C98.953 14.0417 98.9971 13.8308 98.9971 13.5856V12.6294C98.9971 12.443 98.9726 12.2812 98.9236 12.1439C98.8844 12.0066 98.8157 11.8889 98.7176 11.7908C98.6293 11.7025 98.5068 11.6339 98.3498 11.5848C98.2027 11.526 98.0213 11.4966 97.8055 11.4966C97.3641 11.4966 96.9179 11.4966 96.4667 11.4966C96.0254 11.4966 95.584 11.4966 95.1426 11.4966C94.7111 11.4966 94.2746 11.4966 93.8333 11.4966C93.7843 11.4966 93.745 11.4818 93.7156 11.4524C93.6862 11.423 93.6715 11.3838 93.6715 11.3347C93.6715 11.0503 93.6715 10.7806 93.6715 10.5256C93.6715 10.2608 93.6715 9.98615 93.6715 9.70172ZM96.4373 20C96.1136 20 95.7998 20 95.4957 20C95.2015 20 94.8876 20 94.5542 20C94.5051 20 94.4659 19.9853 94.4365 19.9559C94.4071 19.9264 94.3923 19.8872 94.3923 19.8382C94.3923 19.0437 94.3923 18.2787 94.3923 17.5431C94.3923 16.7977 94.3923 16.0572 94.3923 15.3216C94.3923 14.586 94.3923 13.8456 94.3923 13.1002C94.3923 12.3449 94.3923 11.5799 94.3923 10.8051H96.6138L96.4373 11.2023C96.4373 11.526 96.4373 11.8496 96.4373 12.1733C96.4373 12.4872 96.4373 12.7912 96.4373 13.0854C96.4373 13.6935 96.4373 14.2918 96.4373 14.8803C96.4373 15.4589 96.4373 16.0523 96.4373 16.6604C96.4373 17.2587 96.4373 17.8913 96.4373 18.5582C96.4373 18.8231 96.4373 19.0781 96.4373 19.3233C96.4373 19.5685 96.4373 19.794 96.4373 20ZM104.244 15.8807H107.407C107.563 15.8807 107.716 15.8807 107.863 15.8807C108.01 15.8807 108.157 15.8807 108.304 15.8807L108.819 15.7483L109.025 16.6898L109.231 17.6167H104.376C104.347 17.6167 104.317 17.6118 104.288 17.602C104.268 17.5824 104.248 17.5627 104.229 17.5431C104.219 17.5137 104.214 17.4843 104.214 17.4549L104.244 15.8807ZM104.552 20C104.248 20 103.939 20 103.626 20C103.312 20 103.003 20 102.699 20C102.679 20 102.66 19.9951 102.64 19.9853C102.62 19.9755 102.601 19.9559 102.581 19.9264C102.571 19.897 102.571 19.8578 102.581 19.8087C102.65 19.5635 102.733 19.235 102.831 18.8231C102.939 18.4013 103.057 17.9305 103.184 17.4107C103.312 16.8811 103.449 16.3269 103.596 15.7483C103.743 15.1598 103.89 14.5713 104.038 13.9829C104.185 13.3944 104.322 12.8255 104.449 12.2763C104.587 11.727 104.709 11.2317 104.817 10.7904C104.935 10.349 105.033 9.98124 105.112 9.68701C105.671 9.68701 106.244 9.68701 106.833 9.68701C107.431 9.68701 107.966 9.68701 108.436 9.68701C108.476 9.68701 108.505 9.69681 108.525 9.71643C108.544 9.72624 108.559 9.74095 108.569 9.76056C108.588 9.78018 108.603 9.8096 108.613 9.84884C108.75 10.3981 108.897 10.9816 109.054 11.5995C109.211 12.2174 109.373 12.8697 109.54 13.5562C109.716 14.233 109.893 14.9391 110.069 15.6747C110.256 16.4103 110.442 17.1704 110.628 17.9551C110.707 18.2787 110.785 18.6122 110.864 18.9555C110.952 19.2987 111.026 19.6469 111.085 20C110.81 20 110.511 20 110.187 20C109.863 20 109.559 20 109.275 20C109.216 20 109.167 19.9951 109.128 19.9853C109.098 19.9657 109.074 19.9362 109.054 19.897C109.044 19.8578 109.025 19.7989 108.995 19.7205C108.78 18.828 108.579 18.009 108.392 17.2636C108.206 16.5084 108.034 15.8169 107.877 15.1892C107.72 14.5615 107.583 13.9927 107.465 13.4827C107.358 12.9628 107.259 12.4921 107.171 12.0703C107.083 11.6486 107.014 11.271 106.965 10.9375L107.539 11.2906H106.171L106.745 10.9375C106.686 11.271 106.612 11.6486 106.524 12.0703C106.436 12.4823 106.328 12.9481 106.2 13.4679C106.083 13.9878 105.94 14.5713 105.774 15.2187C105.607 15.8562 105.425 16.5721 105.229 17.3666C105.033 18.1512 104.807 19.029 104.552 20ZM116.349 20.2942C115.643 20.2942 115.025 20.2011 114.496 20.0147C113.966 19.8382 113.525 19.5783 113.172 19.235C112.818 18.8917 112.554 18.47 112.377 17.9698C112.21 17.4696 112.127 16.9007 112.127 16.2632V13.2914C112.127 12.7127 112.215 12.188 112.392 11.7172C112.568 11.2367 112.828 10.8247 113.172 10.4814C113.525 10.1382 113.951 9.87336 114.451 9.68701C114.961 9.50066 115.54 9.40748 116.187 9.40748C116.688 9.40748 117.134 9.45652 117.526 9.5546C117.928 9.64287 118.267 9.76056 118.541 9.90768C118.826 10.045 119.046 10.1921 119.203 10.349C119.223 10.3687 119.238 10.3932 119.248 10.4226C119.257 10.452 119.262 10.4814 119.262 10.5109C119.272 10.5403 119.277 10.5697 119.277 10.5991C119.277 10.962 119.277 11.3789 119.277 11.8496C119.277 12.3106 119.277 12.752 119.277 13.1737C118.993 13.1737 118.708 13.1737 118.424 13.1737C118.139 13.1737 117.855 13.1737 117.57 13.1737C117.521 13.1737 117.482 13.159 117.453 13.1296C117.423 13.1002 117.409 13.0609 117.409 13.0119C117.409 12.8353 117.409 12.6588 117.409 12.4823C117.409 12.3057 117.409 12.1096 117.409 11.8938C117.409 11.6682 117.409 11.4083 117.409 11.1141L117.82 11.732C117.575 11.575 117.32 11.4671 117.055 11.4083C116.791 11.3396 116.492 11.3053 116.158 11.3053C115.766 11.3053 115.422 11.3789 115.128 11.526C114.844 11.6633 114.623 11.884 114.466 12.188C114.319 12.4921 114.246 12.8795 114.246 13.3503V16.1014C114.246 16.5427 114.285 16.9154 114.363 17.2195C114.451 17.5137 114.594 17.7589 114.79 17.9551C114.966 18.1316 115.187 18.2591 115.452 18.3376C115.726 18.4062 116.031 18.4405 116.364 18.4405C116.903 18.4405 117.379 18.3768 117.791 18.2493C118.203 18.1218 118.635 17.9158 119.086 17.6314H119.365C119.365 17.7687 119.365 17.906 119.365 18.0433C119.365 18.1708 119.365 18.3032 119.365 18.4405C119.365 18.568 119.365 18.7005 119.365 18.8378C119.365 18.9653 119.365 19.1026 119.365 19.2497C119.365 19.2987 119.355 19.3429 119.336 19.3821C119.326 19.4213 119.306 19.4508 119.277 19.4704C119.14 19.6175 118.929 19.7548 118.644 19.8823C118.36 20 118.022 20.0981 117.629 20.1765C117.237 20.255 116.81 20.2942 116.349 20.2942ZM120.581 9.70172H127.333C127.363 9.70172 127.387 9.71153 127.407 9.73114C127.426 9.74095 127.446 9.76057 127.466 9.78999C127.485 9.8096 127.495 9.83412 127.495 9.86355C127.495 10.1676 127.495 10.4422 127.495 10.6874C127.495 10.9228 127.495 11.1925 127.495 11.4966H120.742C120.713 11.4966 120.684 11.4917 120.654 11.4818C120.634 11.4622 120.615 11.4426 120.595 11.423C120.585 11.3936 120.581 11.3642 120.581 11.3347C120.581 11.0307 120.581 10.7561 120.581 10.5109C120.581 10.2657 120.581 9.99595 120.581 9.70172ZM122.596 13.9534H126.465C126.495 13.9534 126.519 13.9632 126.539 13.9829C126.568 14.0025 126.588 14.0221 126.598 14.0417C126.617 14.0613 126.627 14.0858 126.627 14.1153C126.627 14.3212 126.627 14.5125 126.627 14.689C126.627 14.8558 126.627 15.0225 126.627 15.1892C126.627 15.3462 126.627 15.5129 126.627 15.6894H122.596V13.9534ZM121.463 20C121.434 20 121.409 19.9951 121.39 19.9853C121.37 19.9755 121.35 19.9657 121.331 19.9559C121.321 19.9362 121.311 19.9166 121.301 19.897C121.292 19.8774 121.287 19.8578 121.287 19.8382C121.287 19.5734 121.287 19.1908 121.287 18.6906C121.287 18.1806 121.287 17.602 121.287 16.9547C121.287 16.2975 121.287 15.611 121.287 14.895C121.287 14.1692 121.287 13.4532 121.287 12.7471C121.287 12.0311 121.287 11.374 121.287 10.7757H123.523L123.405 11.0993C123.405 11.3249 123.405 11.5554 123.405 11.7908C123.405 12.0262 123.405 12.2616 123.405 12.497C123.405 12.9481 123.405 13.414 123.405 13.8946C123.405 14.3752 123.405 14.8558 123.405 15.3363C123.405 15.8169 123.405 16.3024 123.405 16.7928C123.405 17.2734 123.405 17.7442 123.405 18.2052H127.333C127.382 18.2052 127.422 18.2199 127.451 18.2493C127.48 18.2787 127.495 18.3179 127.495 18.367C127.495 18.6514 127.495 18.926 127.495 19.1908C127.495 19.4459 127.495 19.7156 127.495 20H121.463ZM134.083 15.2922C134.338 15.7434 134.574 16.1651 134.789 16.5574C135.005 16.9399 135.236 17.3617 135.481 17.8226C135.569 17.9698 135.647 18.0728 135.716 18.1316C135.795 18.1806 135.888 18.2052 135.996 18.2052C136.045 18.2052 136.079 18.2052 136.099 18.2052C136.128 18.2052 136.162 18.2052 136.202 18.2052H136.481C136.481 18.4994 136.481 18.774 136.481 19.029C136.481 19.2742 136.481 19.5439 136.481 19.8382C136.481 19.8872 136.466 19.9264 136.437 19.9559C136.408 19.9853 136.368 20 136.319 20C136.251 20 136.158 20 136.04 20C135.932 20 135.829 20 135.731 20C135.397 20 135.118 19.9755 134.892 19.9264C134.667 19.8676 134.471 19.7695 134.304 19.6322C134.147 19.4851 134 19.284 133.862 19.029C133.607 18.5288 133.352 18.0335 133.097 17.5431C132.852 17.0429 132.602 16.5476 132.347 16.0572L134.083 15.2922ZM128.684 9.70172C129.361 9.70172 130.037 9.70172 130.714 9.70172C131.391 9.70172 132.068 9.70172 132.744 9.70172C133.343 9.70172 133.853 9.77037 134.274 9.90768C134.696 10.045 135.039 10.251 135.304 10.5256C135.569 10.7904 135.76 11.1091 135.878 11.4818C136.005 11.8545 136.069 12.2714 136.069 12.7324V13.5562C136.069 14.0074 136.001 14.4144 135.863 14.7773C135.726 15.1304 135.525 15.4344 135.26 15.6894C135.005 15.9346 134.691 16.121 134.319 16.2485C133.946 16.376 133.524 16.4397 133.053 16.4397C132.759 16.4397 132.46 16.4397 132.156 16.4397C131.862 16.4397 131.563 16.4397 131.258 16.4397L131.097 16.528V14.7037C131.381 14.7037 131.665 14.7037 131.95 14.7037C132.244 14.7037 132.533 14.7037 132.818 14.7037C133.093 14.7037 133.318 14.6645 133.495 14.586C133.671 14.5076 133.799 14.385 133.877 14.2183C133.965 14.0417 134.01 13.8308 134.01 13.5856V12.6294C134.01 12.443 133.985 12.2812 133.936 12.1439C133.897 12.0066 133.828 11.8889 133.73 11.7908C133.642 11.7025 133.519 11.6339 133.362 11.5848C133.215 11.526 133.034 11.4966 132.818 11.4966C132.377 11.4966 131.93 11.4966 131.479 11.4966C131.038 11.4966 130.596 11.4966 130.155 11.4966C129.724 11.4966 129.287 11.4966 128.846 11.4966C128.797 11.4966 128.757 11.4818 128.728 11.4524C128.699 11.423 128.684 11.3838 128.684 11.3347C128.684 11.0503 128.684 10.7806 128.684 10.5256C128.684 10.2608 128.684 9.98615 128.684 9.70172ZM131.45 20C131.126 20 130.812 20 130.508 20C130.214 20 129.9 20 129.567 20C129.518 20 129.478 19.9853 129.449 19.9559C129.419 19.9264 129.405 19.8872 129.405 19.8382C129.405 19.0437 129.405 18.2787 129.405 17.5431C129.405 16.7977 129.405 16.0572 129.405 15.3216C129.405 14.586 129.405 13.8456 129.405 13.1002C129.405 12.3449 129.405 11.5799 129.405 10.8051H131.626L131.45 11.2023C131.45 11.526 131.45 11.8496 131.45 12.1733C131.45 12.4872 131.45 12.7912 131.45 13.0854C131.45 13.6935 131.45 14.2918 131.45 14.8803C131.45 15.4589 131.45 16.0523 131.45 16.6604C131.45 17.2587 131.45 17.8913 131.45 18.5582C131.45 18.8231 131.45 19.0781 131.45 19.3233C131.45 19.5685 131.45 19.794 131.45 20Z" fill="white"/>
<defs>
<linearGradient id="paint0_linear_87_1961" x1="0.0154439" y1="15.0018" x2="29.8639" y2="15.0018" gradientUnits="userSpaceOnUse">
<stop stop-color="#0972FB"/>
<stop offset="0.2918" stop-color="#0A6FF6"/>
<stop offset="0.6518" stop-color="#0C65E7"/>
<stop offset="1" stop-color="#1058D1"/>
</linearGradient>
<linearGradient id="paint1_linear_87_1961" x1="2.77858" y1="25.5589" x2="20.3053" y2="25.5589" gradientUnits="userSpaceOnUse">
<stop stop-color="#55D3FD"/>
<stop offset="0.2478" stop-color="#50D0FB"/>
<stop offset="0.5528" stop-color="#41C9F6"/>
<stop offset="0.8864" stop-color="#28BCED"/>
<stop offset="0.9852" stop-color="#1FB8EA"/>
</linearGradient>
<linearGradient id="paint2_linear_87_1961" x1="9.57433" y1="4.44469" x2="27.1011" y2="4.44469" gradientUnits="userSpaceOnUse">
<stop stop-color="#2F9BFE"/>
<stop offset="0.3949" stop-color="#2C97F9"/>
<stop offset="0.8515" stop-color="#238CEB"/>
<stop offset="1" stop-color="#1F87E5"/>
</linearGradient>
</defs>
</svg>
